<svg xmlns="http://www.w3.org/2000/svg" width="443.924" height="144.572" viewBox="0 0 443.924 144.572">
  <g id="Group_109" data-name="Group 109" transform="translate(-286.021 -723.974)">
    <g id="Group_79" data-name="Group 79" transform="translate(-878 -35.558)">
      <path id="Path_125" data-name="Path 125" d="M53.446,5.992H68.419L40.851-55.661H26.759L-.72,5.992H13.9L19.361-7.22H47.985ZM23.941-18.053l9.776-23.6,9.776,23.6ZM73.88,5.992h13.74V-59.36H73.88ZM128.4-42.1c-6.341,0-11.45,2.026-14.885,6.165v-5.461H100.39V23.078h13.74V.971C117.653,4.847,122.5,6.7,128.4,6.7c13.3,0,23.6-9.512,23.6-24.4S141.7-42.1,128.4-42.1ZM126.02-4.577c-6.87,0-12.066-4.932-12.066-13.123s5.2-13.123,12.066-13.123,12.066,4.932,12.066,13.123S132.89-4.577,126.02-4.577ZM189.962-42.1c-6.077,0-11.362,1.938-15.061,5.637v-22.9h-13.74V5.992H174.9V-17.436c0-8.719,4.756-12.771,11.362-12.771,6.077,0,9.6,3.523,9.6,11.186V5.992H209.6V-21.135C209.6-35.58,201.148-42.1,189.962-42.1Zm51.172,0c-7.574,0-15.237,2.026-20.433,5.725l4.932,9.6a22.784,22.784,0,0,1,13.652-4.4c7.4,0,10.921,3.435,10.921,9.336H239.284c-14.444,0-20.345,5.813-20.345,14.18,0,8.191,6.606,14.356,17.7,14.356,6.958,0,11.89-2.29,14.444-6.606v5.9h12.859V-21.047C263.945-35.4,255.578-42.1,241.134-42.1ZM240.077-2.552c-4.844,0-7.751-2.29-7.751-5.725,0-3.171,2.026-5.549,8.455-5.549h9.424v4.844C248.62-4.665,244.657-2.552,240.077-2.552Z" transform="translate(1344 869)"/>
    </g>
    <g id="Group_110" data-name="Group 110" transform="translate(-22.626 593.491)">
      <path id="Path_164" data-name="Path 164" d="M386.651,420.8,436.9,391.533H421.238l-35.977,16.99Z" transform="translate(-44.65 -152.137)" fill="#3a5fd6"/>
      <path id="Path_165" data-name="Path 165" d="M438.843,391.533v6.393l-50.251,29.266v-7.7Z" transform="translate(-46.591 -152.137)" fill="#2a4ec5"/>
      <path id="Path_166" data-name="Path 166" d="M308.647,275.055H342l51.914-90.506-1.635-54.066Z" transform="translate(0)" fill="#1e3fad"/>
      <path id="Path_167" data-name="Path 167" d="M508.51,187.826l.247-57.343,66.626,115.4H541.947Z" transform="translate(-116.478)" fill="#2a4ec5"/>
      <path id="Path_168" data-name="Path 168" d="M509.1,130.483v11.66l41.734,60.626Z" transform="translate(-116.824)" fill="#0e2d91"/>
      <path id="Path_169" data-name="Path 169" d="M450.949,130.483v11.66l-41.734,60.626Z" transform="translate(-58.61)" fill="#0e2d91"/>
      <path id="Path_170" data-name="Path 170" d="M485.675,340.944H495.2v-16.5Z" transform="translate(-103.17 -113.038)" fill="#1e3fad"/>
      <path id="Path_171" data-name="Path 171" d="M508.51,324.443v16.5h9.527Z" transform="translate(-116.478 -113.038)" fill="#2a4ec5"/>
    </g>
  </g>
</svg>
