<svg xmlns="http://www.w3.org/2000/svg" width="150.259" height="144.572" viewBox="0 0 150.259 144.572">
  <g id="Group_109" data-name="Group 109" transform="translate(-286.021 -723.974)">
    <g id="Group_110" data-name="Group 110" transform="translate(-22.626 593.491)">
      <path id="Path_164" data-name="Path 164" d="M386.651,420.8,436.9,391.533H421.238l-35.977,16.99Z" transform="translate(-44.65 -152.137)" fill="#3a5fd6"/>
      <path id="Path_165" data-name="Path 165" d="M438.843,391.533v6.393l-50.251,29.266v-7.7Z" transform="translate(-46.591 -152.137)" fill="#2a4ec5"/>
      <path id="Path_166" data-name="Path 166" d="M308.647,275.055H342l51.914-90.506-1.635-54.066Z" transform="translate(0)" fill="#1e3fad"/>
      <path id="Path_167" data-name="Path 167" d="M508.51,187.826l.247-57.343,66.626,115.4H541.947Z" transform="translate(-116.478)" fill="#2a4ec5"/>
      <path id="Path_168" data-name="Path 168" d="M509.1,130.483v11.66l41.734,60.626Z" transform="translate(-116.824)" fill="#0e2d91"/>
      <path id="Path_169" data-name="Path 169" d="M450.949,130.483v11.66l-41.734,60.626Z" transform="translate(-58.61)" fill="#0e2d91"/>
      <path id="Path_170" data-name="Path 170" d="M485.675,340.944H495.2v-16.5Z" transform="translate(-103.17 -113.038)" fill="#1e3fad"/>
      <path id="Path_171" data-name="Path 171" d="M508.51,324.443v16.5h9.527Z" transform="translate(-116.478 -113.038)" fill="#2a4ec5"/>
    </g>
  </g>
</svg>
