<svg xmlns="http://www.w3.org/2000/svg" width="444.385" height="144.572" viewBox="0 0 444.385 144.572">
  <g id="Group_111" data-name="Group 111" transform="translate(-286.021 -723.974)">
    <g id="Group_79" data-name="Group 79" transform="translate(-887 -44)">
      <path id="Path_125" data-name="Path 125" d="M53.434,5.977H68.4L40.842-55.662H26.753L-.72,5.977H13.9L19.357-7.231H47.975Zm-29.5-24.039,9.774-23.6,9.774,23.6ZM73.863,5.977H87.6V-59.36H73.863ZM128.369-42.1c-6.34,0-11.447,2.025-14.881,6.164V-41.4h-13.12V23.06H114.1V.958c3.522,3.874,8.365,5.724,14.265,5.724,13.3,0,23.6-9.51,23.6-24.391S141.665-42.1,128.369-42.1ZM125.991-4.59c-6.868,0-12.064-4.931-12.064-13.12s5.2-13.12,12.064-13.12,12.064,4.931,12.064,13.12S132.86-4.59,125.991-4.59ZM189.919-42.1c-6.076,0-11.359,1.937-15.057,5.636V-59.36H161.125V5.977h13.737V-17.446c0-8.717,4.755-12.768,11.359-12.768,6.076,0,9.6,3.522,9.6,11.183V5.977h13.737V-21.144C209.556-35.585,201.1-42.1,189.919-42.1Zm51.16,0c-7.573,0-15.234,2.025-20.429,5.724l4.931,9.6a22.778,22.778,0,0,1,13.649-4.4c7.4,0,10.919,3.434,10.919,9.334H239.23c-14.441,0-20.341,5.812-20.341,14.177,0,8.189,6.6,14.353,17.7,14.353,6.956,0,11.887-2.289,14.441-6.6v5.9h12.856V-21.056C263.886-35.409,255.521-42.1,241.08-42.1ZM240.023-2.564c-4.843,0-7.749-2.289-7.749-5.724,0-3.17,2.025-5.547,8.453-5.547h9.422v4.843C248.564-4.678,244.6-2.564,240.023-2.564Z" transform="translate(1353.52 878.331)" fill="#fff"/>
    </g>
    <g id="Group_110" data-name="Group 110" transform="translate(-22.626 593.491)">
      <path id="Path_164" data-name="Path 164" d="M386.651,420.8,436.9,391.533H421.238l-35.977,16.99Z" transform="translate(-44.65 -152.137)" fill="#fff"/>
      <path id="Path_165" data-name="Path 165" d="M438.843,391.533v6.393l-50.251,29.266v-7.7Z" transform="translate(-46.591 -152.137)" fill="#fff"/>
      <path id="Path_166" data-name="Path 166" d="M308.647,275.055H342l51.914-90.506-1.635-54.066Z" transform="translate(0)" fill="#fff"/>
      <path id="Path_167" data-name="Path 167" d="M508.51,187.826l.247-57.343,66.626,115.4H541.947Z" transform="translate(-116.478)" fill="#fff"/>
      <path id="Path_168" data-name="Path 168" d="M509.1,130.483v11.66l41.734,60.626Z" transform="translate(-116.824)" fill="#fff"/>
      <path id="Path_169" data-name="Path 169" d="M450.949,130.483v11.66l-41.734,60.626Z" transform="translate(-58.61)" fill="#fff"/>
      <path id="Path_170" data-name="Path 170" d="M485.675,340.944H495.2v-16.5Z" transform="translate(-103.17 -113.038)" fill="#fff"/>
      <path id="Path_171" data-name="Path 171" d="M508.51,324.443v16.5h9.527Z" transform="translate(-116.478 -113.038)" fill="#fff"/>
    </g>
  </g>
</svg>
